<svg id="Group_12" data-name="Group 12" xmlns="http://www.w3.org/2000/svg" xmlns:xlink="http://www.w3.org/1999/xlink" width="264.465" height="249.655" viewBox="0 0 264.465 249.655">
  <defs>
    <clipPath id="clip-path">
      <rect id="Rectangle_7" data-name="Rectangle 7" width="264.465" height="249.655" fill="none"/>
    </clipPath>
  </defs>
  <g id="Group_3" data-name="Group 3" clip-path="url(#clip-path)">
    <path id="Path_7" data-name="Path 7" d="M160.387,0c-1.153,0-2.305.021-3.447.058v8.22c1.142-.042,2.295-.063,3.447-.063a92.687,92.687,0,0,1,36.682,177.809q-4.018,1.737-8.226,3.1l-.095.032c-.011.316-.026.626-.037.942l.132.005v7.615A100.907,100.907,0,0,0,160.387,0M67.7,100.9a92.852,92.852,0,0,1,62.669-87.7,91.4,91.4,0,0,1,10.847-2.995V1.831a100.908,100.908,0,0,0,15.725,199.918v-8.22A92.615,92.615,0,0,1,67.7,100.9" transform="translate(-28.178 0)" fill="#ce1b1b"/>
    <rect id="Rectangle_5" data-name="Rectangle 5" width="10.847" height="94.899" transform="translate(117.915 100.904)" fill="#ce1b1b"/>
    <path id="Path_8" data-name="Path 8" d="M249.4,453.768l-7.1,10.846H159.633L154.5,453.768Z" transform="translate(-73.191 -214.959)" fill="#ce1b1b"/>
    <rect id="Rectangle_6" data-name="Rectangle 6" width="10.847" height="94.899" transform="translate(102.189 7.984)" fill="#ce1b1b"/>
    <path id="Path_9" data-name="Path 9" d="M228.16,163.264l0-8.214c12.424-.249,15.125-.606,15.234-.622,4.081-.678,9.238-1.534,13.612-5.3,4.4-3.79,6.53-7.491,6.333-11-.261-4.633-4.789-9.156-12.752-12.736-1.473-.663-4.537-2.04-18.882-2.648-7.124-.3-14.311-.3-21.357,0L210,114.533c7.278-.31,14.7-.309,22.054,0,14.695.622,19.011,2.062,21.9,3.363,10.9,4.9,17.143,11.92,17.585,19.767.347,6.189-2.738,12.139-9.171,17.682-6.119,5.273-13.084,6.429-17.693,7.194-.449.075-3.516.461-16.514.722" transform="translate(-99.48 -54.147)" fill="#ce1b1b"/>
    <path id="Path_10" data-name="Path 10" d="M276.915,302.028q-.055,2.218-.148,4.421l-8.078-.342a6.759,6.759,0,0,1-.1-.947c.027-.689.053-1.379.074-2.068.185-6.073.147-12.236-.11-18.351-.61-14.341-1.989-17.4-2.647-18.878-3.579-7.963-8.105-12.494-12.737-12.752-3.515-.2-7.21,1.931-11,6.331-3.768,4.373-4.626,9.531-5.315,13.673-.005.011-.032.221-.074.763-.116,1.463-.358,5.352-.537,14.41l-8.215-.163c.263-13,.647-15.9.721-16.352.768-4.61,1.926-11.578,7.194-17.694.279-.321.558-.637.837-.942,5.3-5.789,10.957-8.568,16.846-8.231,7.853.442,14.873,6.689,19.767,17.588,1.3,2.889,2.742,7.2,3.363,21.9.247,5.879.3,11.789.153,17.636" transform="translate(-108.024 -116.004)" fill="#ce1b1b"/>
    <path id="Path_11" data-name="Path 11" d="M132.484,319.5H70.205l-.553-.175c-.962-.3-23.734-7.6-39.119-22.79a104.929,104.929,0,0,1-18.1-23.291,97.538,97.538,0,0,1-8.09-18.4C.467,242.575.269,232.661.04,221.181a211.806,211.806,0,0,1,2-33.361l.452-3.245H26.155v7.53H9.073a203.828,203.828,0,0,0-1.5,28.926c.226,11.347.4,20.31,3.95,31.536a91.648,91.648,0,0,0,7.463,16.964,96.239,96.239,0,0,0,16.84,21.641c12.881,12.714,32.152,19.634,35.569,20.793h61.093Z" transform="translate(0 -87.437)" fill="#ce1b1b"/>
    <path id="Path_12" data-name="Path 12" d="M313.585,319.5H251.3v-7.531H312.4c3.414-1.161,22.721-8.111,35.57-20.793a96.24,96.24,0,0,0,16.841-21.642,89.043,89.043,0,0,0,7.455-16.938c1.527-4.953,3.015-11.486,3.55-25.63a249.16,249.16,0,0,0-1.168-34.858H357.222v-7.53h24.15l.386,3.331a257.7,257.7,0,0,1,1.579,39.342c-.568,15.013-2.2,22.121-3.879,27.564a96.862,96.862,0,0,1-8.1,18.428,104.9,104.9,0,0,1-18.1,23.292c-15.385,15.185-38.156,22.486-39.118,22.789Z" transform="translate(-119.048 -87.437)" fill="#ce1b1b"/>
  </g>
</svg>
